<svg clip-rule="evenodd" fill-rule="evenodd" stroke-miterlimit="2" viewBox="0 0 128 128" xmlns="http://www.w3.org/2000/svg" xmlns:xlink="http://www.w3.org/1999/xlink"><linearGradient id="a" gradientTransform="matrix(49.422 -1.97093 1.97093 49.422 62.1236 63.434)" gradientUnits="userSpaceOnUse" x1="0" x2="1" y1="0" y2="0"><stop offset="0" stop-color="#ff8c00"/><stop offset="1" stop-color="#ffd100"/></linearGradient><clipPath id="b"><path clip-rule="evenodd" d="m60 119.945c33.137 0 60-26.859 60-59.999 0-33.141-26.863-60-60-60-33.138 0-60 26.859-60 60 0 33.14 26.862 59.999 60 59.999z"/></clipPath><g transform="translate(3.70821 3.76221)"><path d="m60 116.945c31.429 0 57-25.57 57-56.999 0-31.43-25.571-57-57-57-31.43 0-57 25.57-57 57 0 31.429 25.57 56.999 57 56.999z" fill="#06429e" fill-rule="nonzero"/><g clip-path="url(#b)"><g fill-rule="nonzero"><path d="m59.955 55.188c-1.08-1.08-1.62-2.565-1.62-4.05-8.64-.405-17.28-.135-26.46.945-.675.135-1.215.54-1.35.945-.135.54.405.81.54.81 3.915 1.755 5.94 2.7 9.585 4.86.27.135.675.27 1.08.27 1.89-.135 3.645-.27 5.4-.27 5.67-.135 11.34 0 16.74.675z" fill="#4fd6f6"/><path d="m69 64.638-1.62-1.62c-6.075-.945-12.285-1.35-18.495-1.215-.54 0-1.08.27-1.215.675s.135.81.405.945c3.24 2.295 4.86 3.51 7.965 6.075.27.135.405.27.675.27 3.645.27 6.615.405 9.315.945z" fill="#9ae8fa"/><path d="m64.005 45.333h.945l13.23 1.62 2.025-4.05c-23.22-4.59-44.955-3.78-68.04 2.43-.81.27-1.485.81-1.485 1.35 0 .405.54.54.675.675 4.455 1.08 6.75 1.755 10.935 3.24.405.135.81.135 1.35 0 7.965-1.485 15.39-2.295 22.95-2.565 4.185-.135 8.37 0 12.555.27 1.08-1.755 2.835-2.835 4.86-2.97z" fill="#03c5f2"/></g><path d="m111.256 56.133c-.27-1.08-1.08-1.89-2.16-2.025l-15.391-1.89-2.43-13.77c-.135-1.08-1.08-1.89-2.16-2.025s-2.16.405-2.7 1.35l-6.48 12.825-15.39-1.89c-1.08-.135-2.16.405-2.565 1.35-.54.945-.27 2.16.405 2.835l10.665 11.07-7.83 15.93s0 .135-.135.135c0 0 0 .135-.135.135v1.215s0 .135.135.135c0 .135 0 .135.135.27 0 0 0 .135.135.135l.405.405c.135.135.27.135.27.27h.135c.135 0 .135.135.27.135h.135c.135 0 .135 0 .27.135h1.215c.135 0 .27 0 .27-.135h.135c.135 0 .27-.135.405-.135l14.58-8.64 11.88 12.69c.405.405.945.675 1.485.81.54 0 .945 0 1.485-.27.945-.54 1.62-1.62 1.35-2.7l-3.24-18.09 13.771-8.1c.81 0 1.35-1.08 1.08-2.16z" fill="url(#a)"/></g><path d="m60 116.945c31.429 0 57-25.57 57-56.999 0-31.43-25.571-57-57-57-31.43 0-57 25.57-57 57 0 31.429 25.57 56.999 57 56.999z" fill="none" stroke="#01aae9" stroke-width="6"/></g></svg>