<svg enable-background="new 0 0 2250 730" viewBox="0 0 2250 730" xmlns="http://www.w3.org/2000/svg" xmlns:xlink="http://www.w3.org/1999/xlink"><clipPath id="a"><path d="m-.3 1h2250.6v728h-2250.6z"/></clipPath><path d="m-.3 1h2250.6v728h-2250.6z" fill="#fff"/><path clip-path="url(#a)" d="m243.9 99.7c1.6-2.8.6-6.4-2.1-8.1l-18.1-11.4c-1.4-.9-3.1-1.2-4.7-.8s-3 1.5-3.8 2.9c-10.3 18.2-15.9 38.3-15.9 57.2 0 19.7 6.1 35.9 15.9 48.4 5.3-11.9 11.1-21.2 20-32.8-1.5-4.6-2.3-9.8-2.3-15.6-.1-12.6 3.9-26.9 11-39.8" fill="#fff588"/><path clip-path="url(#a)" d="m304.1 133.5c-49 0-85.8 53.4-85.8 96.9 0 28.6 13.2 53.7 36.3 69.6 1.4 1 3.1 1.3 4.8.9s3.1-1.4 3.9-2.9l10.9-18.5c1.6-2.7.9-6.2-1.7-8-43.7-31.6-11.3-104.5 31.6-104.5 10.1 0 11.7 14.9-16.4 17.5-11.6 8-19 19-22.2 32.7 4.5.8 9.1 1.2 13.7 1.2 32.5 0 65.5-15.2 65.5-44.2 0-20-15.2-40.7-40.6-40.7" fill="#fff588"/><path clip-path="url(#a)" d="m1587.4 175.4c-3.1.8-5.1 3.9-4.4 7.1l4.2 21c.3 1.6 1.3 3.1 2.7 4s3.1 1.2 4.7.8c20.3-5.1 38.7-14.9 52.4-27.9 14.3-13.6 21.8-29.2 24.2-44.9-12.2 4.3-23 6.6-37.6 8.1-2.3 4.3-5.5 8.5-9.7 12.5-9.2 8.6-22.3 15.6-36.5 19.3" fill="#0babc4"/><path clip-path="url(#a)" d="m1712.7 76.7-18.3-11.1c-1.4-.8-3.1-1.1-4.7-.7s-2.9 1.4-3.8 2.8c-18 31-68.4 41.7-91.4 17.6-6.9-7.3 2.8-18.7 24-.1v-.1c13.8 2.9 26.9.6 39-6.4-2.6-3.8-5.4-7.4-8.6-10.7-22.4-23.6-56.2-37-77.2-17-14.5 13.8-19 39-1.5 57.4 33.8 35.5 97.9 25.3 129.3-4.6 6.1-5.8 11.1-12.1 15.1-19 1.9-2.7 1-6.4-1.9-8.1" fill="#0babc4"/><path clip-path="url(#a)" d="m536.5 30.7c-.7-1.5-2-2.6-3.5-3.2-1.6-.5-3.3-.4-4.7.3-24.4 12.3-45.9 29.9-68.7 55.9-1.1 1.2-1.6 2.8-1.5 4.5.1 1.6.9 3.1 2.1 4.2l16.3 13.8c2.5 2.2 6.3 1.9 8.5-.6 19.8-22.6 37.5-37.2 57.8-47.5 2.9-1.5 4.1-5 2.8-8z" fill="#bd42b1"/><path clip-path="url(#a)" d="m1535.7-50.3c1-1.3 1.4-3 1.1-4.6s-1.2-3.1-2.5-4c-22.4-15.6-48.1-26.3-81.8-34-1.6-.4-3.3-.1-4.6.8-1.4.9-2.3 2.3-2.7 3.9l-4.5 20.9c-.7 3.3 1.4 6.5 4.6 7.2 29.2 6.7 50.5 15.4 69.2 28.4 2.7 1.9 6.4 1.3 8.4-1.4z" fill="#6e1766"/><path clip-path="url(#a)" d="m751.6 36.9-20.6-5.6c-3.2-.9-6.5.9-7.4 4.1-1.3 4.2-2.8 8.5-4.8 12.7-1.3 2.9-.3 6.3 2.5 7.9l18.6 10.6c1.5.8 3.2 1 4.8.5s2.9-1.6 3.7-3.2c3.3-6.7 5.6-13.3 7.5-19.4.5-1.6.3-3.3-.5-4.7s-2.2-2.5-3.8-2.9" fill="#a2e0eb"/><path clip-path="url(#a)" d="m524.1 227.1 20.6-5.5c3.2-.8 5.1-4.1 4.4-7.3-1-4.3-1.8-8.8-2.2-13.4-.3-3.2-2.9-5.5-6.1-5.5h-21.4c-1.7 0-3.3.8-4.4 2s-1.7 2.9-1.6 4.6c.5 7.5 1.8 14.4 3.3 20.6.4 1.6 1.4 3 2.8 3.8 1.3.8 3 1.1 4.6.7" fill="#ff9263"/><path clip-path="url(#a)" d="m32 56.6 12.7-17.2c2-2.7 1.4-6.4-1.1-8.4-3.5-2.7-6.9-5.7-10.1-9-2.2-2.3-5.8-2.5-8.2-.5l-16.7 13.4c-1.3 1.1-2.1 2.6-2.2 4.3s.5 3.3 1.6 4.6c5.1 5.5 10.4 10.1 15.4 14 1.3 1 3 1.5 4.6 1.2 1.6-.2 3.1-1.1 4-2.4" fill="#ff9263"/><path clip-path="url(#a)" d="m202.7 495.5 10.1 18.8c1.6 2.9 5.1 4 8.1 2.6 3.9-2 8.1-3.8 12.5-5.3 3-1 4.8-4.1 4-7.2l-5.1-20.8c-.4-1.6-1.5-3-2.9-3.9-1.5-.8-3.2-1-4.8-.5-7.1 2.2-13.6 5.1-19.2 7.9-1.5.7-2.6 2-3.1 3.6s-.4 3.3.4 4.8" fill="#bd42b1"/><path clip-path="url(#a)" d="m1841-34.8.7-21.3c.1-3.3-2.4-6.1-5.7-6.3-4.4-.3-8.9-.8-13.5-1.7-3.1-.6-6.2 1.2-7.1 4.3l-6 20.5c-.5 1.6-.3 3.4.6 4.8.9 1.5 2.3 2.5 3.9 2.9 7.3 1.6 14.3 2.4 20.6 2.8 1.6.1 3.3-.5 4.5-1.6 1.2-1.2 1.9-2.7 2-4.4" fill="#bd42b1"/><path clip-path="url(#a)" d="m2079.9 332.1 5.9-20.5c.9-3.2-.9-6.5-4-7.5-4.2-1.3-8.5-2.9-12.7-4.9-2.9-1.4-6.3-.3-7.9 2.4l-10.8 18.5c-.9 1.5-1.1 3.2-.6 4.8s1.6 3 3.1 3.7c6.7 3.4 13.3 5.8 19.3 7.7 1.6.5 3.3.3 4.7-.5 1.5-.8 2.5-2.2 3-3.7" fill="#0babc4"/><path clip-path="url(#a)" d="m85.2 206.5-15.1-15.1c-2.3-2.3-6.1-2.4-8.5-.1-3.2 3-6.7 6-10.5 8.7-2.6 1.8-3.4 5.3-1.7 8.1l10.8 18.5c.9 1.5 2.3 2.5 3.9 2.9s3.4 0 4.8-.9c6.2-4.2 11.5-8.8 16.1-13.1 1.2-1.1 1.9-2.7 1.9-4.3.1-2-.5-3.5-1.7-4.7" fill="#a2e0eb"/><path clip-path="url(#a)" d="m900.8-32.3c-1.5-3-5.1-4.2-8.1-2.7l-19.2 9.4c-1.5.7-2.6 2-3.1 3.5s-.4 3.2.3 4.7c8 15.9 17.1 31.9 30.7 45.2 1.2 1.2 2.8 1.8 4.5 1.7s3.3-.8 4.4-2.1l14-16.2c2.1-2.4 2-6-.3-8.3-9.5-9.7-16.6-22.1-23.2-35.2" fill="#0babc4"/><path clip-path="url(#a)" d="m655.3-113.3c-1.3-1-2.9-1.4-4.6-1.2l-21.2 2.8c-3.3.4-5.6 3.4-5.2 6.7 1.1 9.3 1.6 17.4 1.6 25.3 0 4.4-.2 8.6-.5 12.8-.2 3.3 2.1 6.2 5.4 6.5l21.2 2.4c1.6.2 3.3-.3 4.6-1.4 1.3-1 2.1-2.6 2.2-4.2.4-5.3.6-10.6.6-16.1 0-9.3-.6-18.8-1.8-29.5-.2-1.6-1-3.1-2.3-4.1" fill="#ff9263"/><path clip-path="url(#a)" d="m27.6 600c1.1 1.2 2.6 2 4.2 2.1l21.3 1.3c3.3.2 6.2-2.3 6.5-5.6.7-9.4 1.7-13.4 4.6-24.4.8-3.2-.9-6.5-4-7.4l-20.4-6.4c-1.6-.5-3.3-.3-4.7.4-1.5.8-2.5 2.1-3 3.7-3.4 12.6-5.1 20.5-6 31.9-.1 1.6.4 3.2 1.5 4.4" fill="#6e1766"/><path clip-path="url(#a)" d="m1970.7-106.9c-1 1.3-1.5 2.9-1.3 4.5l2.7 21.2c.4 3.3 3.4 5.7 6.7 5.3 9.4-1 13.5-.8 24.9 0 3.3.2 6.2-2.1 6.6-5.4l2.5-21.2c.2-1.6-.3-3.3-1.3-4.6s-2.6-2.1-4.2-2.2c-13-1-21.1-1.2-32.4.1-1.7.2-3.2 1-4.2 2.3" fill="#a2e0eb"/><path clip-path="url(#a)" d="m245.9-74.2c-.9-3.1-4-4.9-7.1-4.3l-21 4.3c-1.6.3-3.1 1.4-4 2.8s-1.1 3.2-.7 4.8c5.8 21.3 18.5 41.9 35.1 57.1 1.2 1.1 2.9 1.7 4.6 1.6s3.2-.9 4.3-2.2l13.5-16.6c2-2.5 1.8-6.1-.6-8.3-11.3-10.7-20-24.7-24.1-39.2" fill="#6e1766"/><path clip-path="url(#a)" d="m2195.2 502c-2.8 1.5-4 4.9-2.8 7.8l8.4 19.7c.7 1.5 1.9 2.8 3.5 3.3 1.6.6 3.3.5 4.8-.3 19.7-9.9 37.4-26.4 49-45.7.9-1.4 1.1-3.2.6-4.8s-1.6-3-3-3.8l-19-9.9c-2.8-1.5-6.3-.5-8 2.2-8.1 13.3-20.1 24.6-33.5 31.5" fill="#a2e0eb"/><path clip-path="url(#a)" d="m2256.6 21.9c1 3 4.2 4.8 7.3 4l20.8-5.2c1.6-.4 3-1.5 3.8-2.9.8-1.5 1-3.2.5-4.8-6.7-21-20.2-41.1-37.4-55.6-1.3-1.1-3-1.6-4.6-1.4-1.7.2-3.2 1.1-4.2 2.4l-12.8 17.1c-1.9 2.6-1.5 6.2.9 8.3 11.7 10.1 21 23.8 25.7 38.1" fill="#fff588"/><path clip-path="url(#a)" d="m2281.2 207.2c-.3-1.8-1.3-3.4-2.9-4.3l-18.8-11.3c-2.3-1.4-5.3-1.1-7.3.8-11.1 10.3-25.8 13.8-33.4-.5-1.8-3.3-3.1-7.4-4-12.1-.6-3.1-3.5-5.3-6.6-4.9l-21.3 2.3c-1.7.2-3.2 1-4.2 2.4-1 1.3-1.4 3-1.1 4.7 1.5 8.8 4.1 16.6 7.7 23.4 19.3 36.4 62.7 35.2 90.5 4.6 1.1-1.5 1.7-3.3 1.4-5.1" fill="#bd42b1"/><path clip-path="url(#a)" d="m20.3 340.9c-1.6.9-2.7 2.4-3.1 4.2l-4 21.6c-.5 2.7.8 5.4 3.3 6.6 13.6 6.7 22 19.3 11.3 31.4-2.5 2.8-5.8 5.5-9.9 8-2.7 1.6-3.7 5.1-2.3 7.9l9.6 19.1c.8 1.5 2.1 2.6 3.7 3.1s3.4.3 4.8-.6c7.7-4.5 14.2-9.6 19.2-15.4 27.3-30.8 10.9-71.1-27.5-86.4-1.6-.5-3.5-.4-5.1.5" fill="#0babc4"/><path clip-path="url(#a)" d="m1187.9-102c-1-1.3-2.5-2.1-4.1-2.2l-21.2-2.2c-3.3-.3-6.3 2.1-6.7 5.4-2.4 21.4-5.9 43.5-10.7 67.4-.7 3.3 1.5 6.5 4.7 7.2l20.9 4.3c1.6.3 3.2 0 4.6-.9s2.3-2.3 2.6-3.9c5-24.9 8.7-48.1 11.2-70.5.2-1.7-.3-3.3-1.3-4.6" fill="#fff588"/><g fill="#ff9263"><path clip-path="url(#a)" d="m1893 192.3c-3.8-11.1-11.8-38.6-4.6-52.7-1.1-.1-2.3-.2-3.4-.2-4.7 0-12.5 4.8-18.3 9-7.6 5.4-12.2 14.1-12.3 23.4-.2 9.9 3 21.4 9.5 34.7.7 1.5 2 2.6 3.6 3.1s3.3.4 4.8-.4l18-9.6c2.4-1.3 3.7-4.4 2.7-7.3"/><path clip-path="url(#a)" d="m1977.6 195.9c-9.8 0-21.3-4.2-31.4-15.7-4.2-3.6-8.7-8-12.4-11.8-8.6-8.6-17.9-17.8-28.6-23.5v.1c-2.1-1.1-3.3-1.3-4.1-1.3-.4 0-.8.1-1.4.8-1 1.4-5.5 10 3.9 41.4 2.2 2.1 4.4 4.3 6.4 6.3 10 10 21.1 21 34.1 26.1 7.7 3 16.3 2.6 23.7-.9 9.5-4.5 23.3-13.2 25.7-25.7-1.5.9-3.2 1.8-4.9 2.4-3.2 1.1-7 1.8-11 1.8"/><path clip-path="url(#a)" d="m1960.4 177.1c8.8 7.1 17.9 7.7 24.1 5.5 5-1.8 8.2-5.5 8.2-9.4 0-2.8-.3-6.3-.8-9.7-1.4-6.2-3.3-12.4-5.1-18.6-.2-.7-14.1-38.1-.9-57.8-2.9-.7-5.8-1.2-9-1.2-18.5 0-30 11.5-30 30 0 12.8 3.9 25.9 7.7 38.6 2.5 7.9 4.9 15.9 5.8 22.6"/><path clip-path="url(#a)" d="m2037.5 130.1c-1.3-.6-2.8-1.7-4.4-3.1-.2-.2-.4-.3-.6-.5-3.8-3.5-8-8.4-11.3-12.2-4.4-5.1-9.2-10.7-14.6-15.5l-.1.1c-.6-.6-1.2-1.3-1.9-1.9-1.9-1.6-3.9-3-6-4.4-.4-.2-.8-.4-1.1-.5-2.9 2.5-11.5 14.5-3.7 41.7.7.8 1.4 1.6 2 2.3 7.2 8.3 15.5 18 26 23.6 9 4.7 19.6 5 28.9.9 8.7-3.9 19.6-11.6 22.7-26.5-3.8 1.6-8.1 2.4-12.6 2.4-8.2.1-16.8-2.5-23.3-6.4"/><path clip-path="url(#a)" d="m2118.2 59.9c-4.6-3.8-9.2-7.3-13.8-10.4-2.5-1.4-9.7-4.5-14.2-1.8-5.1 3-7.3 13.8-6.1 29.6 4 2.5 8.5 5.6 12.5 8.6 2.6 2 6.2 1.6 8.3-.9l14-16.3c1.1-1.2 1.6-2.9 1.4-4.5 0-1.8-.8-3.3-2.1-4.3"/><path clip-path="url(#a)" d="m2046.2 50.7c-5.1 7.3-7.9 16-8 24.9v.2c0 4.6.6 10.2 1.3 16.8.9 7.8 1.8 16.6 1.8 24.6v.9c6.6 5.3 20.1 8.5 28 4.6 2.7-1.3 5.9-4 5.4-12.1-.5-7.7-1.2-15.3-1.9-21.7-2.1-18.7-3-40.7 9-50.2-19-5-27.5.6-35.6 12"/></g></svg>