<?xml version="1.0" encoding="utf-8"?>
<!-- Generator: Adobe Illustrator 19.1.0, SVG Export Plug-In . SVG Version: 6.00 Build 0)  -->
<svg version="1.1" xmlns="http://www.w3.org/2000/svg" xmlns:xlink="http://www.w3.org/1999/xlink" x="0px" y="0px"
	 viewBox="0 0 565.2 90.5" style="enable-background:new 0 0 565.2 90.5;" xml:space="preserve">
<style type="text/css">
	.st0{fill:#4FD6F6;}
	.st1{fill:#9AE8FA;}
	.st2{fill:#03C5F2;}
	.st3{fill:url(#SVGID_1_);}
	.st4{fill:#06429E;}
</style>
<g id="Pantone_2728">
</g>
<g id="Pantone_2995_-_overprint">
</g>
<g id="Pantone_311_-_overprint">
</g>
<g id="Pantone_319_-_overprint">
	<g>
		<path class="st0" d="M86,33.1c-1.9-1.9-2.8-4.4-2.9-7c-15-0.9-30-0.4-46,1.5c-1.3,0.2-2.2,1-2.3,1.7c-0.2,0.8,0.7,1.3,1,1.4
			c6.8,3,10.3,4.8,16.6,8.4c0.5,0.3,1.1,0.4,1.8,0.4c3.2-0.2,6.4-0.4,9.5-0.5c10-0.3,19.7,0.1,29.1,1.1L86,33.1z"/>
		<path class="st1" d="M101.8,49.5l-2.9-3c-10.7-1.6-21.5-2.4-32.3-2.2c0,0,0,0,0,0c-1,0-1.9,0.6-2.1,1.3c-0.3,0.7,0.2,1.4,0.7,1.7
			c5.8,4,8.6,6.2,13.8,10.7c0.4,0.3,0.8,0.5,1.3,0.5c6.4,0.4,11.5,0.8,16.3,1.5L101.8,49.5z"/>
		<path class="st2" d="M92.9,15.8c0.6,0,1.1,0,1.7,0.1l23,2.8l3.5-7C80.8,3.5,42.9,4.9,2.6,15.8c-1.5,0.5-2.5,1.5-2.6,2.3
			c-0.1,0.7,1,1,1.3,1.1c7.8,1.8,11.7,3,19.2,5.5c0.7,0.2,1.5,0.3,2.3,0.1c13.8-2.6,27-4,40-4.4c7.3-0.2,14.6-0.1,21.9,0.4
			C86.3,17.8,89.5,15.9,92.9,15.8z"/>
		
			<linearGradient id="SVGID_1_" gradientUnits="userSpaceOnUse" x1="85.7738" y1="39.271" x2="172.0587" y2="39.271" gradientTransform="matrix(0.9992 -3.980000e-02 3.980000e-02 0.9992 2.4711 11.5374)">
			<stop  offset="0" style="stop-color:#FF8C00"/>
			<stop  offset="0.7" style="stop-color:#FFD200"/>
		</linearGradient>
		<path class="st3" d="M175.5,34.7c-0.4-1.9-1.9-3.3-3.8-3.5l-26.9-3.3l-4.3-24.2c-0.3-1.9-1.8-3.3-3.7-3.6
			c-1.9-0.3-3.7,0.7-4.6,2.4l-11.3,22.5l-27-3.3c-1.9-0.2-3.7,0.7-4.5,2.4c-0.8,1.7-0.5,3.7,0.8,5.1l18.7,19.4L95.1,76.1l0,0l0,0
			c-0.1,0.1-0.1,0.2-0.1,0.3c0,0.1-0.1,0.2-0.1,0.3c0,0.1-0.1,0.2-0.1,0.3c0,0.1-0.1,0.2-0.1,0.4c0,0.1,0,0.2,0,0.4
			c0,0.1,0,0.2,0,0.4c0,0.1,0,0.2,0,0.3c0,0.1,0,0.2,0,0.3c0,0.1,0.1,0.2,0.1,0.3c0,0.1,0.1,0.2,0.1,0.4c0,0.1,0.1,0.2,0.1,0.3
			c0.1,0.1,0.1,0.2,0.2,0.4c0,0.1,0.1,0.2,0.2,0.3c0.1,0.1,0.1,0.2,0.2,0.3c0.1,0.1,0.1,0.1,0.2,0.2c0.1,0.1,0.2,0.2,0.3,0.3
			c0,0,0,0,0,0c0,0,0,0,0,0c0.2,0.2,0.4,0.3,0.5,0.4c0.1,0,0.1,0.1,0.2,0.1c0.1,0.1,0.3,0.2,0.4,0.2c0.1,0,0.2,0.1,0.3,0.1
			c0.1,0,0.3,0.1,0.4,0.1c0.1,0,0.2,0,0.3,0.1c0.1,0,0.2,0.1,0.4,0.1c0,0,0,0,0,0c0.1,0,0.3,0,0.4,0c0.1,0,0.2,0,0.3,0
			c0.2,0,0.3,0,0.5-0.1c0.1,0,0.2,0,0.2,0c0.2,0,0.4-0.1,0.5-0.2c0.1,0,0.1,0,0.2,0c0.2-0.1,0.4-0.2,0.7-0.3l25.4-15L147.3,89
			c0.7,0.8,1.7,1.3,2.7,1.4c0.8,0.1,1.7,0,2.5-0.4c1.8-0.9,2.7-2.8,2.4-4.7l-5.6-31.6l24.1-14.2C175.1,38.4,175.9,36.5,175.5,34.7z"
			/>
	</g>
	<g>
		<path class="st4" d="M305.1,53.1c1.5,0,2.8-1.3,2.8-2.8c0-13-8.1-19-18.7-19c-11.2,0-19.2,8-19.2,19.2c0,11.8,8,19.4,19.5,19.4
			c5.4,0,11.5-2,15.2-5.8c0.6-0.6,0.8-1.2,0.8-2c0-1.5-1.2-2.8-2.8-2.8c-0.8,0-1.5,0.3-2,0.8c-2.6,2.6-7.3,4-11.1,4
			c-7.1,0-12.8-4.3-13.4-11.1L305.1,53.1z M276.2,47.9c1.1-7.1,6.7-11,13.1-11c7.3,0,12.2,3.9,12.5,11H276.2z"/>
		<path class="st4" d="M216,31.4c-5.5,0-11,2.2-13.7,7.1l0-4.1c0-1.7-1.3-3.1-3-3.1c-1.7,0-3,1.4-3,3.1c0,0,0,47.7,0,49.3
			c0,1.7,1.3,3.1,3,3.1c1.7,0,3-1.4,3-3.1c0-1.7,0-21.3,0-21.3c2.6,5,8.6,7.4,13.8,7.4c10.6,0,18.9-6.7,18.9-19.2
			C234.9,38.3,226.7,31.4,216,31.4z M215.6,64.1c-7.3,0-13.1-5.5-13.1-13.4c0-8,5.7-13.4,13.1-13.4c7.2,0,13.1,4.9,13.1,13.4
			C228.7,59.4,222.8,64.1,215.6,64.1z"/>
		<path class="st4" d="M265.8,32.8c-2.1-1-4.1-1.5-6.6-1.5c-4.6,0-9.2,1.7-11.6,5.7v-2.7c0-1.6-1.3-3-3-3c-1.7,0-3,1.3-3,3
			c0,0,0,30.8,0,32.5c0,1.7,1.4,3.1,3.1,3.1c1.7,0,3.1-1.4,3.1-3.1c0-1.7,0-18.3,0-18.3c0-7.1,3.9-11,11-11.1c1.7,0,3.1,0.3,4.5,1
			c0.4,0.2,0.8,0.3,1.2,0.3c1.7,0,3-1.3,3-3C267.5,34.3,266.8,33.2,265.8,32.8z"/>
		<path class="st4" d="M549.3,47.4c-4.7-0.5-9.2-1.5-9.3-5.3c-0.1-4,4.1-6,9.2-5.9c2.3,0,6.4,0.5,8.3,1.6l1.6,0.8l0,0
			c0.4,0.2,0.8,0.3,1.2,0.3c1.6,0,2.8-1.3,2.8-2.8c0-1.2-0.8-2.2-1.8-2.6c-0.6-0.2-1.2-0.5-1.8-0.7c-3.4-1.2-7.1-1.8-10.5-1.8
			c-7.1-0.1-15.3,3.2-15.2,11.2c0,7.9,7.8,9.6,15,10.6c5.8,0.6,10.4,1.8,10.3,5.9c-0.2,4.9-6,5.7-9.7,5.7c-3.3,0-6.8-0.8-9.8-2.3
			l0,0c-0.4-0.2-0.9-0.3-1.4-0.3c-1.7,0-3,1.3-3,3c0,1.2,0.7,2.2,1.7,2.7l0,0c0,0,0,0,0.1,0c0,0,0.1,0,0.1,0
			c3.9,1.8,7.5,2.6,12.2,2.6c8.4,0,15.7-3.5,15.9-11.2C565.4,49.6,556.1,48.3,549.3,47.4z"/>
		<path class="st4" d="M336.1,66.5c0-1.5-1.2-2.7-2.7-2.7c-0.2,0-0.5,0-0.7,0.1c0,0,0,0,0,0c-0.8,0.2-1.6,0.3-2.4,0.3
			c-4.4,0-5.9-2.8-5.9-7.1V37.5l7,0c1.5,0,2.6-1.2,2.6-2.6s-1.2-2.6-2.6-2.6l-6.9,0l0-7.8c0-1.7-1.4-3.1-3.1-3.1
			c-1.7,0-3.1,1.4-3.1,3.1v7.8l-4.8,0c-1.5,0-2.6,1.2-2.6,2.6c0,1.5,1.2,2.6,2.6,2.6h4.8v19.6c0,8.2,3.8,12.8,11.7,12.7
			c1.3,0,2.6-0.2,3.9-0.6c0,0,0,0,0,0c0.1,0,0.2-0.1,0.2-0.1C335.3,68.8,336.1,67.8,336.1,66.5z"/>
		<path class="st4" d="M363.4,66.5c0-1.5-1.2-2.7-2.7-2.7c-0.2,0-0.5,0-0.7,0.1c0,0,0,0,0,0c-0.8,0.2-1.6,0.3-2.4,0.3
			c-4.4,0-5.9-2.8-5.9-7.1V37.5h8.2c1.5,0,2.6-1.2,2.6-2.6s-1.2-2.6-2.6-2.6l-8.1,0l0-7.8c0-1.7-1.4-3.1-3.1-3.1
			c-1.7,0-3.1,1.4-3.1,3.1v7.8l-4.8,0c-1.5,0-2.6,1.2-2.6,2.6s1.2,2.6,2.6,2.6h4.8v19.6c0,8.2,3.8,12.8,11.7,12.7
			c1.3,0,2.6-0.2,3.9-0.6c0,0,0,0,0,0c0.1,0,0.2-0.1,0.2-0.1C362.6,68.8,363.4,67.8,363.4,66.5z"/>
		<path class="st4" d="M403.2,34.4c0-1.7-1.4-3.2-3.2-3.2c-1.4,0-2.5,0.9-3,2.1l-11.1,28.8l-12-29l0,0c-0.5-1.1-1.6-1.8-2.8-1.8
			c-1.7,0-3.2,1.4-3.2,3.2c0,0.4,0.1,0.8,0.2,1.2l0,0l14.1,33.1l-3.5,8.9c-1.8,3.9-5,3.8-8.2,2.4c0,0,0,0,0,0
			c-0.4-0.2-0.7-0.3-1.2-0.3c-1.6,0-2.8,1.3-2.8,2.8c0,1.1,0.7,2.1,1.6,2.5l0,0c6.8,3.3,13.3,2.1,16.4-5.7l18.2-44
			C403.2,35.2,403.2,34.8,403.2,34.4z"/>
		<path class="st4" d="M475.9,31.5c-5,0-8.9,1.7-12.4,6.5l0-2.8c0-1.6-1.3-3-3-3c-1.6,0-3,1.3-3,3v31.8c0,1.7,1.4,3,3,3
			c1.7,0,3-1.4,3-3l0-17.6c0-7.3,5-12,11.7-12c7.6,0,10.6,3.6,10.6,11.6c0,0,0,18,0,18c0,1.7,1.4,3.1,3.1,3.1s3.1-1.4,3.1-3.1V48.7
			C492.1,37.8,486.7,31.5,475.9,31.5z"/>
		<path class="st4" d="M515.8,47.6l13-10.9c0.6-0.5,0.9-1.2,0.9-2c0-1.4-1.2-2.6-2.6-2.6c-0.7,0-1.3,0.3-1.8,0.7L507,48.5l0-28.8
			c0-1.7-1.4-3-3-3c-1.7,0-3,1.4-3,3v47.2c0,1.7,1.4,3,3,3c1.7,0,3-1.4,3-3l0-12.1l4.1-3.4l12.6,17.4c0.6,0.7,1.4,1.2,2.4,1.2
			c1.7,0,3.1-1.4,3.1-3.1c0-0.7-0.2-1.3-0.6-1.8L515.8,47.6z"/>
		<path class="st4" d="M426.1,16.7c-1.7,0-3,1.4-3,3l0,47.2c0,1.7,1.4,3,3,3s3-1.4,3-3V19.7C429.2,18,427.8,16.7,426.1,16.7z"/>
		<g>
			<path class="st4" d="M447.8,24.1c0-4.9-7.4-4.9-7.4-0.1C440.4,29,447.8,29,447.8,24.1z"/>
			<path class="st4" d="M444,33.4c-1.7,0-3.1,1.4-3.1,3.1v30.3c0,1.7,1.4,3.1,3.1,3.1c1.7,0,3.1-1.4,3.1-3.1V36.5
				C447.1,34.8,445.7,33.4,444,33.4z"/>
		</g>
	</g>
</g>
</svg>
