<svg clip-rule="evenodd" fill-rule="evenodd" stroke-linejoin="round" stroke-miterlimit="2" viewBox="0 0 3422 502" xmlns="http://www.w3.org/2000/svg" xmlns:xlink="http://www.w3.org/1999/xlink"><linearGradient id="a" gradientTransform="matrix(111.724 -4.45546 4.45546 111.724 1350.11 575.56)" gradientUnits="userSpaceOnUse" x1="0" x2="1" y1="0" y2="0"><stop offset="0" stop-color="#f68c1e"/><stop offset=".7" stop-color="#fdd206"/><stop offset="1" stop-color="#fdd206"/></linearGradient><clipPath id="b"><path clip-rule="evenodd" d="m1233.82 514.176h732.43v120.642h-732.43z"/></clipPath><clipPath id="c"><path clip-rule="evenodd" d="m1233.82 514.18h733.46v117.924h-733.46z"/></clipPath><clipPath id="d"><path clip-rule="evenodd" d="m1233.82 514.181h732.432v117.215h-732.432z"/></clipPath><clipPath id="e"><path clip-rule="evenodd" d="m1233.82 514.181h732.432v117.215h-732.432z"/></clipPath><clipPath id="f"><path clip-rule="evenodd" d="m1461.28 559.108c-.5-2.411-2.49-4.236-4.93-4.536l-34.85-4.289-5.51-31.349c-.43-2.441-2.38-4.332-4.83-4.694-2.44-.351-4.86.886-5.97 3.099l-14.7 29.129-35.03-4.31c-2.41-.297-4.76.96-5.84 3.14-1.09 2.18-.69 4.808 1 6.561l24.21 25.101-17.82 35.876-.01.033c-.07.137-.11.279-.17.419-.06.147-.13.291-.18.44-.04.147-.06.297-.1.445-.03.152-.07.303-.1.457-.02.151-.02.303-.03.455 0 .152-.02.304-.02.456 0 .151.03.3.04.451.02.151.02.303.05.453.02.141.07.277.11.416.04.155.07.312.12.463.04.128.11.248.16.373.07.155.13.313.21.462.06.115.14.22.21.331.1.149.18.303.29.444.07.097.17.181.25.274.12.14.24.286.38.416 0 .003 0 .005.01.008v.004c.22.209.46.395.71.562.08.052.16.091.24.139.19.113.37.227.57.317.11.051.23.083.34.127.17.064.34.135.51.183.13.036.26.052.38.078.16.032.31.074.47.094.01.001.02 0 .03.001.19.022.37.02.56.024.12.002.24.016.35.011.21-.009.42-.043.62-.074.1-.016.2-.018.3-.039.23-.048.46-.122.69-.199.07-.024.14-.036.21-.063.29-.113.58-.25.86-.415l32.92-19.395 26.71 28.584c.94 1.013 2.19 1.621 3.5 1.782 1.09.135 2.23-.044 3.27-.561 2.28-1.137 3.54-3.636 3.09-6.143l-7.2-41.006 31.21-18.409c2.12-1.251 3.21-3.714 2.71-6.126z"/></clipPath><clipPath id="g"><path clip-rule="evenodd" d="m1233.82 514.176h732.43v120.642h-732.43z"/></clipPath><g transform="matrix(4.16667 0 0 4.16667 -5140.92 -2129.04)"><g clip-path="url(#b)"><g clip-path="url(#c)"><g clip-path="url(#d)" fill-rule="nonzero"><path d="m1345.24 557.054c-2.4-2.488-3.67-5.758-3.7-9.074-19.44-1.204-38.92-.553-59.66 1.927-1.64.265-2.83 1.359-3.04 2.245-.25 1.081.94 1.695 1.3 1.858 8.87 3.936 13.29 6.178 21.57 10.912.67.396 1.48.563 2.3.5 4.15-.299 8.27-.51 12.35-.633 12.97-.391 25.57.115 37.77 1.487z" fill="#5fcbec"/><path d="m1365.78 578.357-3.73-3.865c-13.83-2.132-27.83-3.086-41.86-2.831-.02 0-.03 0-.05.001-1.26.038-2.4.732-2.73 1.66-.33.958.26 1.786.92 2.241 7.46 5.176 11.13 8.018 17.89 13.829.48.42 1.04.648 1.65.683 8.32.485 14.85 1.067 21.1 1.988z" fill="#a2ddf1"/><path d="m1354.23 534.641c.72-.028 1.44.002 2.15.089l29.8 3.667 4.59-9.099c-52.19-10.523-101.32-8.796-153.58 5.326-1.89.59-3.24 1.996-3.36 2.994-.13.96 1.33 1.348 1.63 1.416 10.09 2.378 15.2 3.853 24.85 7.18.89.316 1.92.355 2.94.125 17.86-3.32 34.95-5.24 51.81-5.749 9.49-.286 18.92-.109 28.37.499 2.28-3.814 6.32-6.269 10.8-6.448z" fill="#19c3f0"/></g></g></g><g clip-path="url(#e)"><g clip-path="url(#f)"><path d="m1349.01 514.181h112.387v117.215h-112.387z" fill="url(#a)" fill-rule="nonzero"/></g></g><g fill-rule="nonzero"><g clip-path="url(#g)" fill="#164699"><path d="m1591.7 576.235c1.37-9.249 8.67-14.312 17.04-14.312 9.41 0 15.82 5.031 16.25 14.312zm37.51 6.721c1.99 0 3.6-1.626 3.6-3.591 0-16.876-10.54-24.647-24.26-24.647-14.51 0-24.93 10.418-24.93 24.925 0 15.286 10.42 25.119 25.32 25.119 7 0 14.96-2.569 19.73-7.471.71-.737 1.05-1.548 1.05-2.54 0-1.983-1.61-3.591-3.59-3.591-1 0-1.91.413-2.56 1.077-3.43 3.316-9.43 5.127-14.44 5.127-9.25 0-16.55-5.551-17.43-14.411z"/><path d="m1513.22 597.265c-9.44 0-16.94-7.107-16.94-17.428 0-10.418 7.4-17.428 16.94-17.428 9.35 0 16.94 6.328 16.94 17.331 0 11.391-7.59 17.525-16.94 17.525zm.49-42.353c-7.11 0-14.22 2.823-17.82 9.152v-5.264c0-2.201-1.74-3.985-3.94-3.985s-3.95 1.801-3.95 4.002v63.938c0 2.177 1.74 3.995 3.95 3.995s3.94-1.811 3.94-3.995 0-27.632 0-27.632c3.31 6.524 11.2 9.542 17.91 9.542 13.73 0 24.44-8.666 24.44-24.925 0-15.871-10.71-24.828-24.53-24.828z"/><path d="m1578.29 556.671c-2.73-1.274-5.37-1.953-8.54-1.953-5.94 0-11.87 2.143-14.99 7.4v-3.497c0-2.116-1.73-3.903-3.89-3.903-2.15 0-3.9 1.747-3.9 3.903v42.051c0 2.172 1.79 3.994 3.99 3.994 2.21 0 4-1.81 4-3.994 0-2.185-.01-23.754-.01-23.754 0-9.153 5.07-14.215 14.22-14.409 2.18 0 4.04.447 5.84 1.251.49.222 1.03.348 1.6.348 2.16 0 3.91-1.749 3.91-3.906 0-1.541-.98-2.953-2.23-3.531z"/><path d="m1945.61 575.651c-6.04-.681-11.98-1.947-12.07-6.815-.1-5.161 5.25-7.79 11.97-7.693 2.92 0 8.28.682 10.81 2.045l2.09 1.013.01-.003c.48.239 1.03.377 1.61.377 2.02 0 3.66-1.641 3.66-3.666 0-1.559-.97-2.888-2.34-3.417-.75-.317-1.51-.612-2.29-.882-4.36-1.509-9.18-2.282-13.65-2.282-9.25-.096-19.76 4.187-19.66 14.508 0 10.223 10.12 12.463 19.37 13.728 7.5.779 13.44 2.337 13.34 7.691-.19 6.329-7.79 7.4-12.56 7.4-4.31 0-8.81-1.038-12.76-3.02-.53-.27-1.13-.425-1.76-.425-2.14 0-3.87 1.733-3.87 3.872 0 1.543.9 2.872 2.21 3.494v.002c.02.011.04.019.07.03.04.02.08.04.13.058 5 2.331 9.75 3.389 15.79 3.389 10.9 0 20.35-4.576 20.54-14.507.19-12.073-11.78-13.729-20.64-14.897z"/><path d="m1669.35 600.397c0-1.95-1.58-3.53-3.53-3.53-.3 0-.59.048-.86.118-.01.001-.01-.001-.01 0-1.07.266-2.13.414-3.12.414-5.75 0-7.6-3.602-7.6-9.249v-25.407h9.03c1.87 0 3.4-1.524 3.4-3.404 0-1.879-1.53-3.403-3.4-3.403l-8.93.001.01-10.129c0-2.205-1.79-3.993-4-3.993-2.2 0-3.99 1.788-3.99 3.993v10.129l-6.23-.001c-1.88 0-3.41 1.524-3.41 3.403 0 1.88 1.53 3.404 3.41 3.404h6.23v25.407c0 10.611 4.87 16.646 15.18 16.452 1.72-.052 3.36-.305 5-.747v-.001c.07-.02.24-.074.26-.08 1.47-.424 2.56-1.767 2.56-3.377z"/><path d="m1704.74 600.397c0-1.95-1.58-3.53-3.53-3.53-.3 0-.59.048-.86.118-.01.001-.01-.001-.01-.001-1.06.267-2.13.415-3.12.415-5.75 0-7.6-3.602-7.6-9.249v-25.407h10.63c1.88 0 3.4-1.524 3.4-3.404 0-1.879-1.52-3.403-3.4-3.403l-10.53.001.01-10.129c0-2.205-1.79-3.993-4-3.993-2.2 0-3.99 1.788-3.99 3.993v10.129l-6.23-.001c-1.89 0-3.41 1.524-3.41 3.403 0 1.88 1.52 3.404 3.41 3.404h6.23v25.407c0 10.611 4.87 16.646 15.18 16.452 1.72-.052 3.36-.305 5-.747v-.001c.07-.02.24-.074.26-.08 1.47-.424 2.56-1.767 2.56-3.377z"/><path d="m1756.38 558.811c0-2.26-1.84-4.093-4.1-4.093-1.76 0-3.26 1.119-3.84 2.685l-14.33 37.27-15.49-37.62c-.66-1.379-2.06-2.335-3.69-2.335-2.26 0-4.09 1.829-4.09 4.085 0 .561.12 1.095.32 1.582v.001l18.28 42.95-4.48 11.585c-2.37 5.088-6.52 4.931-10.64 3.069 0-.002-.01.003-.01.002-.46-.212-.97-.338-1.52-.338-2.01 0-3.64 1.632-3.64 3.645 0 1.469.87 2.727 2.13 3.304 8.79 4.23 17.17 2.677 21.27-7.347l23.55-56.971c.17-.458.28-.954.28-1.474z"/><path d="m1850.51 554.955c-6.42 0-11.58 2.24-16.06 8.372v-3.661c0-2.124-1.72-3.846-3.85-3.846-2.12 0-3.84 1.722-3.84 3.846v41.158c0 2.175 1.76 3.938 3.94 3.938 2.17 0 3.94-1.763 3.94-3.938v-22.797c0-9.443 6.43-15.576 15.19-15.576 9.83 0 13.72 4.673 13.72 14.991v23.327c0 2.205 1.79 3.993 3.99 3.993 2.21 0 4-1.788 4-3.993v-23.424c0-14.212-7.01-22.39-21.03-22.39z"/><path d="m1902.17 575.885 16.82-14.074c.74-.624 1.22-1.546 1.22-2.591 0-1.878-1.53-3.4-3.4-3.4-.9 0-1.7.351-2.31.913l-23.62 20.32v-37.336c0-2.175-1.77-3.939-3.94-3.939-2.18 0-3.94 1.764-3.94 3.939v61.107c0 2.175 1.76 3.938 3.94 3.938 2.17 0 3.93-1.763 3.93-3.938v-15.692l5.37-4.379 16.32 22.491c.73.918 1.84 1.518 3.1 1.518 2.19 0 3.96-1.774 3.96-3.964 0-.903-.31-1.726-.82-2.393z"/><path d="m1786.02 535.778c-2.17 0-3.94 1.764-3.94 3.939v61.107c0 2.175 1.77 3.938 3.94 3.938 2.18 0 3.94-1.763 3.94-3.938v-61.107c0-2.175-1.76-3.939-3.94-3.939z"/><path d="m1814.13 545.465c0-6.396-9.59-6.396-9.59-.089 0 6.394 9.59 6.394 9.59.089z"/><path d="m1809.23 557.517c-2.21 0-3.99 1.789-3.99 3.994v39.258c0 2.205 1.78 3.993 3.99 3.993s3.99-1.788 3.99-3.993v-39.258c0-2.205-1.78-3.994-3.99-3.994z"/></g><path d="m2017.52 510.97 2.78 2.17 3.08-1.708 2.41 2.578 3.32-1.204 1.97 2.923 3.47-.67 1.49 3.196 3.53-.12.97 3.39 3.5.433.43 3.501 3.4.975-.12 3.526 3.19 1.494-.67 3.463 2.92 1.975-1.2 3.316 2.58 2.409-1.71 3.086 2.17 2.782-2.17 2.782 1.71 3.087-2.58 2.408 1.2 3.316-2.92 1.975.67 3.464-3.19 1.493.12 3.526-3.4.975-.43 3.501-3.5.433-.97 3.39-3.53-.12-1.49 3.196-3.47-.67-1.97 2.923-3.32-1.204-2.41 2.578-3.08-1.707-2.78 2.169-2.79-2.169-3.08 1.707-2.41-2.578-3.32 1.204-1.97-2.923-3.47.67-1.49-3.196-3.53.12-.97-3.39-3.5-.433-.44-3.501-3.39-.975.12-3.526-3.19-1.493.67-3.464-2.92-1.975 1.2-3.316-2.58-2.408 1.71-3.087-2.17-2.782 2.17-2.782-1.71-3.086 2.58-2.409-1.2-3.316 2.92-1.975-.67-3.463 3.19-1.494-.12-3.526 3.39-.975.44-3.501 3.5-.433.97-3.39 3.53.12 1.49-3.196 3.47.67 1.97-2.923 3.32 1.204 2.41-2.578 3.08 1.708z" fill="#17567e"/><path d="m1997.62 539.737h-7.99v18.457h4.27v-5.089h3.72c1.63 0 3.06-.263 4.27-.817 1.19-.527 2.11-1.292 2.77-2.32.66-1.002.97-2.189.97-3.534 0-1.371-.31-2.557-.97-3.559s-1.58-1.767-2.77-2.321c-1.21-.554-2.64-.817-4.27-.817zm-.24 9.888h-3.48v-6.408h3.48c1.29 0 2.27.264 2.93.818.66.553 1 1.371 1 2.399 0 1.029-.34 1.793-1 2.347s-1.64.844-2.93.844z" fill="#fff"/><path d="m2024.75 558.195-4.14-5.933c1.21-.528 2.16-1.292 2.82-2.294.66-.976.98-2.163.98-3.534s-.32-2.557-.98-3.559-1.58-1.767-2.77-2.321c-1.21-.554-2.63-.817-4.27-.817h-7.99v18.458h4.27v-5.142h3.93l3.56 5.142zm-4.67-11.761c0 1.029-.34 1.82-1 2.373-.66.554-1.63.844-2.93.844h-3.48v-6.434h3.48c1.3 0 2.27.264 2.93.818s1 1.371 1 2.399z" fill="#fff"/><path d="m2036.46 558.511c1.92 0 3.64-.422 5.17-1.239 1.52-.818 2.74-1.978 3.61-3.428s1.32-3.059 1.32-4.878c0-1.82-.45-3.455-1.32-4.905s-2.09-2.584-3.61-3.401c-1.53-.818-3.25-1.24-5.17-1.24-1.93 0-3.64.422-5.17 1.24-1.56.817-2.74 1.951-3.61 3.401s-1.32 3.085-1.32 4.905c0 1.819.45 3.428 1.32 4.878s2.05 2.61 3.61 3.428c1.53.817 3.24 1.239 5.17 1.239zm0-3.639c-1.08 0-2.08-.263-2.96-.764-.87-.501-1.55-1.187-2.05-2.084-.5-.896-.77-1.924-.77-3.058s.27-2.162.77-3.059 1.18-1.608 2.05-2.109c.88-.501 1.88-.739 2.96-.739s2.08.238 2.95.739 1.58 1.212 2.08 2.109c.51.897.74 1.925.74 3.059s-.23 2.162-.74 3.058c-.5.897-1.21 1.583-2.08 2.084s-1.87.764-2.95.764z" fill="#fff"/></g></g></svg>