<?xml version="1.0" encoding="utf-8"?>
<!-- Generator: Adobe Illustrator 20.1.0, SVG Export Plug-In . SVG Version: 6.00 Build 0)  -->
<!DOCTYPE svg PUBLIC "-//W3C//DTD SVG 1.1//EN" "http://www.w3.org/Graphics/SVG/1.1/DTD/svg11.dtd">
<svg version="1.1" id="Layer_1" xmlns="http://www.w3.org/2000/svg" xmlns:xlink="http://www.w3.org/1999/xlink" x="0px" y="0px"
	 viewBox="0 0 240 39" style="enable-background:new 0 0 240 39;" xml:space="preserve">
<style type="text/css">
	.st0{fill:#4FD6F6;}
	.st1{fill:#9AE8FA;}
	.st2{fill:#03C5F2;}
	.st3{fill:url(#SVGID_1_);}
	.st4{fill:#FFFFFF;}
</style>
<g>
	<path class="st0" d="M36.5,14.3c-0.8-0.8-1.2-1.9-1.2-3C28.9,11,22.5,11.2,15.7,12c-0.5,0.1-0.9,0.4-1,0.7
		c-0.1,0.4,0.3,0.6,0.4,0.6c2.9,1.3,4.4,2,7.1,3.6c0.2,0.1,0.5,0.2,0.8,0.2c1.4-0.1,2.7-0.2,4-0.2c4.2-0.1,8.4,0,12.4,0.5L36.5,14.3
		z"/>
	<path class="st1" d="M43.2,21.3L42,20.1c-4.5-0.7-9.1-1-13.7-0.9c0,0,0,0,0,0c-0.4,0-0.8,0.2-0.9,0.5c-0.1,0.3,0.1,0.6,0.3,0.7
		c2.4,1.7,3.6,2.6,5.9,4.5c0.2,0.1,0.3,0.2,0.5,0.2c2.7,0.2,4.9,0.3,6.9,0.7L43.2,21.3z"/>
	<path class="st2" d="M39.5,7c0.2,0,0.5,0,0.7,0l9.8,1.2l1.5-3C34.3,1.8,18.2,2.4,1.1,7C0.5,7.2,0,7.6,0,8c0,0.3,0.4,0.4,0.5,0.5
		c3.3,0.8,5,1.3,8.1,2.4c0.3,0.1,0.6,0.1,1,0c5.9-1.1,11.4-1.7,17-1.9c3.1-0.1,6.2,0,9.3,0.2C36.7,7.9,38,7.1,39.5,7z"/>
	
		<linearGradient id="SVGID_1_" gradientUnits="userSpaceOnUse" x1="33.6324" y1="17.0546" x2="70.2706" y2="17.0546" gradientTransform="matrix(0.9992 -3.984763e-02 3.984763e-02 0.9992 3.8206 4.7075)">
		<stop  offset="0" style="stop-color:#FF8C00"/>
		<stop  offset="0.7" style="stop-color:#FFD200"/>
	</linearGradient>
	<path class="st3" d="M74.5,15c-0.2-0.8-0.8-1.4-1.6-1.5l-11.4-1.4L59.7,1.9c-0.1-0.8-0.8-1.4-1.6-1.5c-0.8-0.1-1.6,0.3-2,1
		l-4.8,9.5L39.9,9.5c-0.8-0.1-1.6,0.3-1.9,1c-0.4,0.7-0.2,1.6,0.3,2.1l7.9,8.2l-5.8,11.8l0,0l0,0c0,0,0,0.1-0.1,0.1
		c0,0,0,0.1-0.1,0.1c0,0,0,0.1,0,0.1c0,0,0,0.1,0,0.1c0,0,0,0.1,0,0.1c0,0,0,0.1,0,0.1c0,0,0,0.1,0,0.1c0,0,0,0.1,0,0.1
		c0,0,0,0.1,0,0.1c0,0.1,0,0.1,0,0.2c0,0,0,0.1,0.1,0.1c0,0.1,0,0.1,0.1,0.2c0,0,0,0.1,0.1,0.1c0,0,0.1,0.1,0.1,0.1
		c0,0,0.1,0.1,0.1,0.1c0,0,0.1,0.1,0.1,0.1c0,0,0,0,0,0c0,0,0,0,0,0c0.1,0.1,0.2,0.1,0.2,0.2c0,0,0.1,0,0.1,0c0.1,0,0.1,0.1,0.2,0.1
		c0,0,0.1,0,0.1,0c0.1,0,0.1,0,0.2,0.1c0,0,0.1,0,0.1,0c0.1,0,0.1,0,0.2,0c0,0,0,0,0,0c0.1,0,0.1,0,0.2,0c0,0,0.1,0,0.1,0
		c0.1,0,0.1,0,0.2,0c0,0,0.1,0,0.1,0c0.1,0,0.2,0,0.2-0.1c0,0,0,0,0.1,0c0.1,0,0.2-0.1,0.3-0.1l10.8-6.4l8.8,9.4
		c0.3,0.3,0.7,0.5,1.1,0.6c0.4,0,0.7,0,1.1-0.2c0.7-0.4,1.2-1.2,1-2l-2.4-13.4l10.2-6C74.3,16.6,74.7,15.8,74.5,15z"/>
</g>
<g>
	<path class="st4" d="M129.6,22.8c0.7,0,1.2-0.5,1.2-1.2c0-5.5-3.5-8.1-7.9-8.1c-4.8,0-8.2,3.4-8.2,8.2c0,5,3.4,8.2,8.3,8.2
		c2.3,0,4.9-0.8,6.5-2.4c0.2-0.2,0.3-0.5,0.3-0.8c0-0.6-0.5-1.2-1.2-1.2c-0.3,0-0.6,0.1-0.8,0.4c-1.1,1.1-3.1,1.7-4.7,1.7
		c-3,0-5.4-1.8-5.7-4.7L129.6,22.8z M117.3,20.6c0.4-3,2.8-4.7,5.6-4.7c3.1,0,5.2,1.6,5.3,4.7L117.3,20.6z"/>
	<path class="st4" d="M91.7,13.6c-2.3,0-4.7,0.9-5.8,3l0-1.7c0-0.7-0.6-1.3-1.3-1.3c-0.7,0-1.3,0.6-1.3,1.3c0,0,0,20.2,0,21
		c0,0.7,0.6,1.3,1.3,1.3c0.7,0,1.3-0.6,1.3-1.3c0-0.7,0-9.1,0-9.1c1.1,2.1,3.7,3.1,5.9,3.1c4.5,0,8-2.8,8-8.2
		C99.8,16.6,96.2,13.6,91.7,13.6z M91.6,27.5c-3.1,0-5.6-2.3-5.6-5.7c0-3.4,2.4-5.7,5.6-5.7c3.1,0,5.6,2.1,5.6,5.7
		C97.1,25.5,94.6,27.5,91.6,27.5z"/>
	<path class="st4" d="M112.9,14.2c-0.9-0.4-1.8-0.6-2.8-0.6c-1.9,0-3.9,0.7-4.9,2.4v-1.1c0-0.7-0.6-1.3-1.3-1.3
		c-0.7,0-1.3,0.6-1.3,1.3c0,0,0,13.1,0,13.8c0,0.7,0.6,1.3,1.3,1.3c0.7,0,1.3-0.6,1.3-1.3c0-0.7,0-7.8,0-7.8c0-3,1.7-4.7,4.7-4.7
		c0.7,0,1.3,0.1,1.9,0.4c0.2,0.1,0.3,0.1,0.5,0.1c0.7,0,1.3-0.6,1.3-1.3C113.6,14.9,113.3,14.4,112.9,14.2z"/>
	<path class="st4" d="M233.2,20.4c-2-0.2-3.9-0.6-4-2.2c0-1.7,1.7-2.6,3.9-2.5c1,0,2.7,0.2,3.5,0.7l0.7,0.3l0,0
		c0.2,0.1,0.3,0.1,0.5,0.1c0.7,0,1.2-0.5,1.2-1.2c0-0.5-0.3-0.9-0.8-1.1c-0.2-0.1-0.5-0.2-0.7-0.3c-1.4-0.5-3-0.7-4.5-0.7
		c-3,0-6.5,1.4-6.4,4.8c0,3.3,3.3,4.1,6.3,4.5c2.5,0.3,4.4,0.8,4.4,2.5c-0.1,2.1-2.6,2.4-4.1,2.4c-1.4,0-2.9-0.3-4.2-1l0,0
		c-0.2-0.1-0.4-0.1-0.6-0.1c-0.7,0-1.3,0.6-1.3,1.3c0,0.5,0.3,0.9,0.7,1.1l0,0c0,0,0,0,0,0c0,0,0,0,0,0c1.6,0.8,3.2,1.1,5.2,1.1
		c3.6,0,6.7-1.5,6.7-4.8C240.1,21.4,236.1,20.8,233.2,20.4z"/>
	<path class="st4" d="M142.7,28.5c0-0.6-0.5-1.2-1.2-1.2c-0.1,0-0.2,0-0.3,0c0,0,0,0,0,0c-0.3,0.1-0.7,0.1-1,0.1
		c-1.9,0-2.5-1.2-2.5-3v-8.3l3,0c0.6,0,1.1-0.5,1.1-1.1c0-0.6-0.5-1.1-1.1-1.1l-2.9,0l0-3.3c0-0.7-0.6-1.3-1.3-1.3s-1.3,0.6-1.3,1.3
		V14l-2,0c-0.6,0-1.1,0.5-1.1,1.1c0,0.6,0.5,1.1,1.1,1.1l2,0v8.3c0,3.5,1.6,5.5,5,5.4c0.6,0,1.1-0.1,1.6-0.2c0,0,0,0,0,0
		c0,0,0.1,0,0.1,0C142.4,29.5,142.7,29.1,142.7,28.5z"/>
	<path class="st4" d="M154.3,28.5c0-0.6-0.5-1.2-1.2-1.2c-0.1,0-0.2,0-0.3,0c0,0,0,0,0,0c-0.3,0.1-0.7,0.1-1,0.1
		c-1.9,0-2.5-1.2-2.5-3v-8.3l3.5,0c0.6,0,1.1-0.5,1.1-1.1c0-0.6-0.5-1.1-1.1-1.1l-3.4,0l0-3.3c0-0.7-0.6-1.3-1.3-1.3
		c-0.7,0-1.3,0.6-1.3,1.3V14l-2,0c-0.6,0-1.1,0.5-1.1,1.1c0,0.6,0.5,1.1,1.1,1.1l2,0v8.3c0,3.5,1.6,5.5,5,5.4c0.6,0,1.1-0.1,1.6-0.2
		c0,0,0,0,0,0c0,0,0.1,0,0.1,0C154,29.5,154.3,29.1,154.3,28.5z"/>
	<path class="st4" d="M171.2,14.9c0-0.7-0.6-1.3-1.3-1.3c-0.6,0-1.1,0.4-1.3,0.9l-4.7,12.2l-5.1-12.3l0,0c-0.2-0.5-0.7-0.8-1.2-0.8
		c-0.7,0-1.3,0.6-1.3,1.3c0,0.2,0,0.4,0.1,0.5l0,0l6,14.1l-1.5,3.8c-0.8,1.7-2.1,1.6-3.5,1c0,0,0,0,0,0c-0.2-0.1-0.3-0.1-0.5-0.1
		c-0.7,0-1.2,0.5-1.2,1.2c0,0.5,0.3,0.9,0.7,1.1l0,0c2.9,1.4,5.6,0.9,7-2.4l7.7-18.7C171.2,15.3,171.2,15.1,171.2,14.9z"/>
	<path class="st4" d="M202.1,13.7c-2.1,0-3.8,0.7-5.3,2.7l0-1.2c0-0.7-0.6-1.3-1.3-1.3c-0.7,0-1.3,0.6-1.3,1.3v13.5
		c0,0.7,0.6,1.3,1.3,1.3c0.7,0,1.3-0.6,1.3-1.3l0-7.5c0-3.1,2.1-5.1,5-5.1c3.2,0,4.5,1.5,4.5,4.9c0,0,0,7.6,0,7.6
		c0,0.7,0.6,1.3,1.3,1.3c0.7,0,1.3-0.6,1.3-1.3V21C209,16.3,206.7,13.7,202.1,13.7z"/>
	<path class="st4" d="M219,20.5l5.5-4.6c0.2-0.2,0.4-0.5,0.4-0.8c0-0.6-0.5-1.1-1.1-1.1c-0.3,0-0.6,0.1-0.8,0.3l-7.7,6.7l0-12.2
		c0-0.7-0.6-1.3-1.3-1.3c-0.7,0-1.3,0.6-1.3,1.3l0,20c0,0.7,0.6,1.3,1.3,1.3c0.7,0,1.3-0.6,1.3-1.3l0-5.1l1.8-1.4l5.4,7.4
		c0.2,0.3,0.6,0.5,1,0.5c0.7,0,1.3-0.6,1.3-1.3c0-0.3-0.1-0.6-0.3-0.8L219,20.5z"/>
	<path class="st4" d="M180.9,7.4c-0.7,0-1.3,0.6-1.3,1.3l0,20c0,0.7,0.6,1.3,1.3,1.3c0.7,0,1.3-0.6,1.3-1.3v-20
		C182.2,8,181.7,7.4,180.9,7.4z"/>
	<g>
		<path class="st4" d="M190.2,10.5c0-2.1-3.1-2.1-3.1,0C187,12.6,190.2,12.6,190.2,10.5z"/>
		<path class="st4" d="M188.5,14.5c-0.7,0-1.3,0.6-1.3,1.3v12.9c0,0.7,0.6,1.3,1.3,1.3c0.7,0,1.3-0.6,1.3-1.3V15.8
			C189.9,15.1,189.3,14.5,188.5,14.5z"/>
	</g>
</g>
</svg>
